<?xml version="1.0" encoding="UTF-8" standalone="no"?>
<svg
   viewBox="0 0 32 32"
   version="1.1"
   role="img"
   aria-label="xxlarge"
   id="svg3"
   width="32"
   height="32"
   xmlns="http://www.w3.org/2000/svg"
   xmlns:svg="http://www.w3.org/2000/svg">
  <defs
     id="defs3" />
  <path
     id="path1"
     style="fill:#4cd45c;fill-opacity:1;stroke:#4cd45c;stroke-width:0;stroke-opacity:1"
     d="M 16,0 A 16,16 0 0 0 0,16 16,16 0 0 0 16,32 16,16 0 0 0 32,16 16,16 0 0 0 16,0 Z m -0.05469,7 c 1.362956,0.018344 2.466324,1.1310871 2.47461,2.4941406 l 0.02539,4.0292974 4.125,-0.02539 c 1.364072,-0.0083 2.448032,1.083293 2.429688,2.447265 -0.01834,1.363973 -1.132022,2.468264 -2.496094,2.476563 l -4.029297,0.02539 0.02539,4.125 C 18.508297,23.935319 17.41764,25.018344 16.054685,25 14.691729,24.98166 13.588361,23.868913 13.580075,22.505859 l -0.02539,-4.029297 -4.1250005,0.02539 C 8.0656162,18.510251 6.9816562,17.41866 7,16.054688 7.0183438,14.690714 8.1320224,13.586423 9.4960938,13.578125 L 13.525391,13.552734 13.5,9.4277344 C 13.491714,8.0646808 14.582357,6.9816563 15.945312,7 Z" />
</svg>
