<?xml version="1.0" encoding="UTF-8" standalone="no"?>
<svg
   viewBox="0 0 32 32"
   version="1.1"
   role="img"
   aria-label="xxlarge"
   id="svg3"
   width="32"
   height="32"
   xmlns="http://www.w3.org/2000/svg"
   xmlns:svg="http://www.w3.org/2000/svg">
  <defs
     id="defs3" />
  <g
     id="g3"
     transform="scale(0.25)">
    <path
       id="rect1"
       style="fill:#888888;fill-opacity:1;stroke:#606060;stroke-width:0;stroke-dasharray:none"
       d="M 31.992188,0 A 31.991618,31.991618 0 0 0 0,31.992188 V 96.007812 A 31.991618,31.991618 0 0 0 31.992188,128 H 96.007812 A 31.991618,31.991618 0 0 0 128,96.007812 V 31.992188 A 31.991618,31.991618 0 0 0 96.007812,0 Z M 64,24 C 76.702325,24 87,34.297675 87,47 87,59.709995 76.702325,70 64,70 51.297675,70 41,59.709995 41,47 41,34.297675 51.297675,24 64,24 Z M 40.601562,80 H 87.398438 C 96.017429,80 103,86.812733 103,95.203125 v 6.937495 C 93.09401,111.92182 79.350647,118 64.164062,118 48.805878,118 34.92939,111.76785 25,101.78906 V 95.203125 C 25,86.812733 31.982571,80 40.601562,80 Z" />
  </g>
</svg>
