<?xml version="1.0" encoding="UTF-8" standalone="no"?>
<svg
   viewBox="0 0 32 32"
   version="1.1"
   role="img"
   aria-label="xxlarge"
   id="svg3"
   width="32"
   height="32"
   xmlns="http://www.w3.org/2000/svg"
   xmlns:svg="http://www.w3.org/2000/svg">
  <defs
     id="defs3">
    <linearGradient
       id="swatch30">
      <stop
         style="stop-color:#4cd45c;stop-opacity:1;"
         offset="0"
         id="stop31" />
    </linearGradient>
    <linearGradient
       id="swatch17">
      <stop
         style="stop-color:#4cd45c;stop-opacity:1;"
         offset="0"
         id="stop17" />
    </linearGradient>
    <linearGradient
       id="swatch2">
      <stop
         style="stop-color:#4cd45c;stop-opacity:1;"
         offset="0"
         id="stop2" />
    </linearGradient>
  </defs>
  <path
     id="rect8"
     style="fill:#606060;fill-opacity:1;stroke:#606060;stroke-width:0"
     d="M 7.9746094,0 C 3.5567779,0 0,3.5567779 0,7.9746094 V 24.025391 C 0,28.443222 3.5567779,32 7.9746094,32 H 24.025391 C 28.443222,32 32,28.443222 32,24.025391 V 7.9746094 C 32,3.5567779 28.443222,0 24.025391,0 Z M 16,4 a 10,10 0 0 1 10,10 v 4.003906 L 29,18 23.013672,26 17,18.011719 l 4,-0.0039 V 14 A 5,5 0 0 0 16,9 5,5 0 0 0 11,14 V 26 H 6.0039062 V 14.044922 A 10,10 0 0 1 6,14 10,10 0 0 1 16,4 Z" />
</svg>
