<?xml version="1.0" encoding="UTF-8" standalone="no"?>

<svg
   fill="#000000"
   version="1.1"
   id="db1"
   width="32"
   height="32"
   viewBox="0 0 3.80412 3.80412"
   xml:space="preserve"
   xmlns="http://www.w3.org/2000/svg"
   xmlns:svg="http://www.w3.org/2000/svg"><defs
   id="defs6" />
<g
   id="g6"
   transform="matrix(0.04853048,0,0,0.04000042,-0.40563932,0)"
   style="fill:#606060;fill-opacity:1">
	<g
   id="Layer_1_14_"
   style="fill:#606060;fill-opacity:1">
		<g
   id="g5"
   style="fill:#606060;fill-opacity:1">
			<g
   id="g2"
   style="fill:#606060;fill-opacity:1">
				<g
   id="g1"
   style="fill:#606060;fill-opacity:1">
					<path
   d="M 47.561,0 C 25.928,0 8.39,6.393 8.39,14.283 v 11.72 c 0,7.891 17.538,14.282 39.171,14.282 21.632,0 39.17,-6.392 39.17,-14.282 V 14.283 C 86.731,6.393 69.193,0 47.561,0 Z"
   id="path1"
   style="fill:#606060;fill-opacity:1" />
				</g>
			</g>
			<g
   id="g4"
   style="fill:#606060;fill-opacity:1">
				<g
   id="g3"
   style="fill:#606060;fill-opacity:1">
					<path
   d="m 47.561,47.115 c -20.654,0 -37.682,-5.832 -39.171,-13.227 -0.071,0.353 0,19.355 0,19.355 0,7.892 17.538,14.283 39.171,14.283 21.632,0 39.17,-6.393 39.17,-14.283 0,0 0.044,-19.003 -0.026,-19.355 -1.491,7.396 -18.491,13.227 -39.144,13.227 z"
   id="path2"
   style="fill:#606060;fill-opacity:1" />
				</g>
			</g>
			<path
   d="M 86.694,61.464 C 85.206,68.855 68.215,74.69 47.561,74.69 26.907,74.69 9.875,68.854 8.386,61.464 L 8.39,80.82 c 0,7.891 17.538,14.282 39.171,14.282 21.632,0 39.17,-6.393 39.17,-14.282 z"
   id="path4"
   style="fill:#606060;fill-opacity:1" />
		</g>
	</g>
</g>
</svg>
