<?xml version="1.0" encoding="UTF-8" standalone="no"?>
<svg
   viewBox="0 0 32 32"
   version="1.1"
   role="img"
   aria-label="xxlarge"
   id="svg3"
   width="32"
   height="32"
   xmlns="http://www.w3.org/2000/svg"
   xmlns:svg="http://www.w3.org/2000/svg">
  <defs
     id="defs3">
    <linearGradient
       id="swatch30">
      <stop
         style="stop-color:#4cd45c;stop-opacity:1;"
         offset="0"
         id="stop31" />
    </linearGradient>
    <linearGradient
       id="swatch17">
      <stop
         style="stop-color:#4cd45c;stop-opacity:1;"
         offset="0"
         id="stop17" />
    </linearGradient>
    <linearGradient
       id="swatch2">
      <stop
         style="stop-color:#4cd45c;stop-opacity:1;"
         offset="0"
         id="stop2" />
    </linearGradient>
  </defs>
  <path
     id="rect8"
     style="fill:#c83c3c;fill-opacity:1;stroke:#606060;stroke-width:0"
     d="M 7.9746094,0 C 3.5567735,0 0,3.5567735 0,7.9746094 V 24.025391 C 0,28.443227 3.5567735,32 7.9746094,32 H 24.025391 C 28.443227,32 32,28.443227 32,24.025391 V 7.9746094 C 32,3.5567735 28.443227,0 24.025391,0 Z m 1.2304687,6 c 0.8187049,-3e-7 1.6382909,0.3140723 2.2656249,0.9414062 L 16,11.470703 20.529297,6.9414062 c 1.254668,-1.2546682 3.274628,-1.2546685 4.529297,0 1.254668,1.2546686 1.254668,3.2746288 0,4.5292968 L 20.529297,16 l 4.529297,4.529297 c 1.254668,1.254668 1.254668,3.274628 0,4.529297 -1.254669,1.254668 -3.274629,1.254668 -4.529297,0 L 16,20.529297 11.470703,25.058594 c -1.254669,1.254668 -3.2746283,1.254668 -4.5292968,0 -1.2546684,-1.254669 -1.2546686,-3.274629 0,-4.529297 L 11.470703,16 6.9414062,11.470703 c -1.2546684,-1.254668 -1.2546685,-3.2746283 0,-4.5292968 C 7.5687404,6.314072 8.3863726,5.9999997 9.2050781,6 Z" />
</svg>
