<?xml version="1.0" encoding="UTF-8" standalone="no"?>
<svg
   viewBox="0 0 32 32"
   version="1.1"
   role="img"
   aria-label="xxlarge"
   id="svg3"
   sodipodi:docname="proj_disk2.svg"
   width="32"
   height="32"
   inkscape:version="1.3.2 (091e20e, 2023-11-25, custom)"
   inkscape:export-filename="disk.svg"
   inkscape:export-xdpi="32"
   inkscape:export-ydpi="32"
   xmlns:inkscape="http://www.inkscape.org/namespaces/inkscape"
   xmlns:sodipodi="http://sodipodi.sourceforge.net/DTD/sodipodi-0.dtd"
   xmlns="http://www.w3.org/2000/svg"
   xmlns:svg="http://www.w3.org/2000/svg">
  <defs
     id="defs3" />
  <sodipodi:namedview
     id="namedview3"
     pagecolor="#ffffff"
     bordercolor="#000000"
     borderopacity="0.25"
     inkscape:showpageshadow="2"
     inkscape:pageopacity="0.0"
     inkscape:pagecheckerboard="0"
     inkscape:deskcolor="#d1d1d1"
     inkscape:zoom="28.562501"
     inkscape:cx="22.897155"
     inkscape:cy="8.2275708"
     inkscape:window-width="3840"
     inkscape:window-height="2066"
     inkscape:window-x="-11"
     inkscape:window-y="-11"
     inkscape:window-maximized="1"
     inkscape:current-layer="svg3" />
  <path
     id="rect1"
     style="fill:#606060;fill-opacity:1;stroke:#606060;stroke-width:0"
     d="M 6.9921875,0 C 4.7810476,0 3,1.7810476 3,3.9921875 V 28.007812 C 3,30.218953 4.7810476,32 6.9921875,32 H 25.007812 C 27.218953,32 29,30.218953 29,28.007812 V 3.9921875 C 29,1.7810476 27.218953,0 25.007812,0 Z M 7.5,3 A 1.5,1.5 0 0 1 9,4.5 1.5,1.5 0 0 1 7.5,6 1.5,1.5 0 0 1 6,4.5 1.5,1.5 0 0 1 7.5,3 Z m 17,0 A 1.5,1.5 0 0 1 26,4.5 1.5,1.5 0 0 1 24.5,6 1.5,1.5 0 0 1 23,4.5 1.5,1.5 0 0 1 24.5,3 Z M 16,5 A 10,10 0 0 1 26,15 10,10 0 0 1 16,25 10,10 0 0 1 6,15 10,10 0 0 1 16,5 Z M 7.5,25 A 1.5,1.5 0 0 1 9,26.5 1.5,1.5 0 0 1 7.5,28 1.5,1.5 0 0 1 6,26.5 1.5,1.5 0 0 1 7.5,25 Z m 17,0 A 1.5,1.5 0 0 1 26,26.5 1.5,1.5 0 0 1 24.5,28 1.5,1.5 0 0 1 23,26.5 1.5,1.5 0 0 1 24.5,25 Z" />
  <circle
     style="fill:#606060;fill-opacity:1;stroke:#606060;stroke-width:0"
     id="path3"
     cx="16"
     cy="15"
     r="1.5" />
  <rect
     style="fill:#606060;fill-opacity:1;stroke:#606060;stroke-width:0"
     id="rect3"
     width="8.6354504"
     height="3.4942563"
     x="-31.862368"
     y="-11.547964"
     transform="matrix(-0.87048912,-0.49218766,0.50785323,-0.86144361,0,0)"
     ry="1.7471281" />
</svg>
