<?xml version="1.0" encoding="UTF-8" standalone="no"?>
<svg
   height="32"
   id="Layer_1"
   version="1.1"
   viewBox="0 0 32 32"
   width="32"
   xml:space="preserve"
   xmlns="http://www.w3.org/2000/svg"
   xmlns:svg="http://www.w3.org/2000/svg"><defs
     id="defs1" /><path
     d="m 24.472943,27.701371 -0.485232,-1.171452 c -0.395851,-0.95567 0.09572,-2.098327 1.07324,-2.503229 0.492603,-0.204044 1.025223,-0.180875 1.509428,0.05197 l 1.051757,0.449215 c 1.048578,0.441479 2.257,-0.05904 2.686254,-1.112683 l 0.989139,-2.423245 c 0.198216,-0.479385 0.190835,-1.063233 -0.01986,-1.571894 -0.210694,-0.508659 -0.615126,-0.919016 -1.097454,-1.125539 l -1.023589,-0.424772 c -0.528506,-0.187406 -0.927862,-0.563735 -1.135365,-1.06469 -0.408617,-0.986491 0.05029,-2.142709 0.997021,-2.534855 l 1.177642,-0.487795 c 1.039096,-0.430408 1.58398,-1.640293 1.149818,-2.688445 L 30.375276,8.7510476 C 29.941119,7.7028975 28.711197,7.2371875 27.664404,7.6707836 L 26.494459,8.1553905 C 25.547732,8.5475379 24.405666,8.0544641 23.997049,7.0679741 23.792738,6.5747242 23.81221,6.0339372 24.036691,5.5526885 L 24.465975,4.499059 C 24.671857,4.0164742 24.65678,3.4358134 24.446086,2.9271535 24.235392,2.4184932 23.830964,2.0081456 23.348632,1.8016139 L 20.937026,0.7689492 C 19.891651,0.33514479 18.683217,0.83569505 18.258468,1.8784439 L 17.835027,2.9025855 C 17.648282,3.4314038 17.27585,3.8384957 16.783247,4.0425388 15.798031,4.4506285 14.650148,3.9870458 14.2543,3.0313853 L 13.769065,1.8599243 C 13.331715,0.80406846 12.141016,0.2589117 11.094224,0.69250739 L 9.9242877,1.1771109 8.7543417,1.6617185 C 7.7152456,2.0921259 7.2510914,3.3227456 7.6884408,4.3786013 L 8.1736757,5.5500622 C 8.5695239,6.5057229 8.0779452,7.6483924 7.100425,8.0532939 6.6078219,8.2573367 6.0566148,8.2328293 5.5506351,7.9909471 L 4.534734,7.5630033 C 3.4893599,7.1291996 2.2809259,7.629749 1.8561766,8.672498 l -0.99683806,2.426424 c -0.20590748,0.482581 -0.19083044,1.063242 0.0198635,1.571903 0.21069646,0.508656 0.61512436,0.919005 1.09745536,1.125536 l 1.0485783,0.441479 c 0.4958301,0.173849 0.8951893,0.550187 1.0994986,1.043425 0.4086179,0.98649 -0.050289,2.142708 -0.9970153,2.534855 l -1.1699459,0.484608 c -1.03909715,0.430408 -1.58716874,1.632598 -1.14982322,2.688444 l 0.97046972,2.342921 c 0.4341549,1.048142 1.6640804,1.51386 2.7108721,1.080266 l 1.1699456,-0.484608 c 0.9467264,-0.392147 2.0887932,0.100926 2.4974124,1.087413 0.204307,0.493241 0.180334,1.044929 -0.049974,1.555673 l -0.4234395,1.024142 c -0.1950449,0.487082 -0.1908224,1.063239 0.019871,1.571899 0.2106907,0.508651 0.6151234,0.919008 1.097445,1.125544 L 11.221167,31.3033 c 1.045373,0.433804 2.253808,-0.06675 2.686253,-1.112683 l 0.426062,-1.061347 c 0.177739,-0.507023 0.545671,-0.903213 1.030581,-1.104064 0.985216,-0.408091 2.133095,0.05548 2.528944,1.011143 l 0.485234,1.171462 c 0.434158,1.048149 1.567392,1.454578 2.614186,1.020983 l 1.177642,-0.487796 1.169936,-0.484604 c 1.053183,-0.418167 1.567107,-1.506891 1.132952,-2.555039 z m -5.839982,-5.499664 v 0 C 15.238581,23.607706 11.335697,22.000883 9.9214937,18.586697 8.5072909,15.17251 10.130855,11.276567 13.52523,9.870568 v 0 0 c 3.394371,-1.4059948 7.297251,0.200819 8.711454,3.615005 1.414203,3.414188 -0.209358,7.310138 -3.603736,8.716129 z"
     id="path1"
     style="fill:#888888;fill-opacity:1;stroke:#bbbbbb;stroke-width:0.0833656;stroke-opacity:1" /></svg>
