<?xml version="1.0" encoding="UTF-8" standalone="no"?>
<svg
   height="30.999924"
   id="Layer_1"
   version="1.1"
   viewBox="0 0 30.922853 30.999924"
   width="30.922853"
   xml:space="preserve"
   sodipodi:docname="proj_gear2.svg"
   inkscape:export-filename="gear.svg"
   inkscape:export-xdpi="6"
   inkscape:export-ydpi="6"
   inkscape:version="1.3.2 (091e20e, 2023-11-25, custom)"
   xmlns:inkscape="http://www.inkscape.org/namespaces/inkscape"
   xmlns:sodipodi="http://sodipodi.sourceforge.net/DTD/sodipodi-0.dtd"
   xmlns="http://www.w3.org/2000/svg"
   xmlns:svg="http://www.w3.org/2000/svg"><defs
     id="defs1" /><sodipodi:namedview
     id="namedview1"
     pagecolor="#ffffff"
     bordercolor="#000000"
     borderopacity="0.25"
     inkscape:showpageshadow="2"
     inkscape:pageopacity="0.0"
     inkscape:pagecheckerboard="0"
     inkscape:deskcolor="#d1d1d1"
     inkscape:zoom="28.5625"
     inkscape:cx="16.070022"
     inkscape:cy="17.925602"
     inkscape:window-width="3840"
     inkscape:window-height="2066"
     inkscape:window-x="-11"
     inkscape:window-y="-11"
     inkscape:window-maximized="1"
     inkscape:current-layer="Layer_1" /><path
     d="m 23.858156,27.200079 -0.485232,-1.171452 c -0.395851,-0.95567 0.09572,-2.098327 1.07324,-2.503229 0.492603,-0.204044 1.025223,-0.180875 1.509428,0.05197 l 1.051757,0.449215 c 1.048578,0.441479 2.257,-0.05904 2.686254,-1.112683 l 0.989139,-2.423245 c 0.198216,-0.479385 0.190835,-1.063233 -0.01986,-1.571894 -0.210694,-0.508659 -0.615126,-0.919016 -1.097454,-1.125539 L 28.541839,17.36845 c -0.528506,-0.187406 -0.927862,-0.563735 -1.135365,-1.06469 -0.408617,-0.986491 0.05029,-2.142709 0.997021,-2.534855 l 1.177642,-0.487795 c 1.039096,-0.430408 1.58398,-1.640293 1.149818,-2.688445 L 29.760489,8.2497556 C 29.326332,7.2016055 28.09641,6.7358955 27.049617,7.1694916 L 25.879672,7.6540985 C 24.932945,8.0462459 23.790879,7.5531721 23.382262,6.5666821 23.177951,6.0734322 23.197423,5.5326452 23.421904,5.0513965 L 23.851188,3.997767 C 24.05707,3.5151822 24.041993,2.9345214 23.831299,2.4258615 23.620605,1.9172012 23.216177,1.5068536 22.733845,1.3003219 L 20.322239,0.26765715 C 19.276864,-0.16614726 18.06843,0.334403 17.643681,1.3771519 L 17.22024,2.4012935 C 17.033495,2.9301118 16.661063,3.3372037 16.16846,3.5412468 15.183244,3.9493365 14.035361,3.4857538 13.639513,2.5300933 L 13.154278,1.3586323 C 12.716928,0.30277641 11.526229,-0.24238035 10.479437,0.19121534 L 9.3095003,0.67581885 8.1395543,1.1604265 C 7.1004582,1.5908339 6.636304,2.8214536 7.0736534,3.8773093 L 7.5588883,5.0487702 C 7.9547365,6.0044309 7.4631578,7.1471004 6.4856376,7.5520019 5.9930345,7.7560447 5.4418274,7.7315373 4.9358477,7.4896551 L 3.9199466,7.0617113 C 2.8745725,6.6279076 1.6661385,7.128457 1.2413892,8.171206 L 0.24455113,10.59763 c -0.20590748,0.482581 -0.19083044,1.063242 0.0198635,1.571903 0.21069646,0.508656 0.61512436,0.919005 1.09745537,1.125536 l 1.0485783,0.441479 c 0.4958301,0.173849 0.8951893,0.550187 1.0994986,1.043425 0.4086179,0.98649 -0.050289,2.142708 -0.9970153,2.534855 l -1.1699459,0.484608 c -1.03909716,0.430408 -1.58716875,1.632598 -1.14982323,2.688444 l 0.97046973,2.342921 c 0.4341549,1.048142 1.6640804,1.51386 2.7108721,1.080266 l 1.1699456,-0.484608 c 0.9467264,-0.392147 2.0887932,0.100926 2.4974124,1.087413 0.204307,0.493241 0.180334,1.044929 -0.049974,1.555673 l -0.4234395,1.024142 c -0.1950449,0.487082 -0.1908224,1.063239 0.019871,1.571899 0.2106907,0.508651 0.6151234,0.919008 1.097445,1.125544 l 2.4206152,1.010878 c 1.045373,0.433804 2.253808,-0.06675 2.686253,-1.112683 l 0.426062,-1.061347 c 0.177739,-0.507023 0.545671,-0.903213 1.030581,-1.104064 0.985216,-0.408091 2.133095,0.05548 2.528944,1.011143 l 0.485234,1.171462 c 0.434158,1.048149 1.567392,1.454578 2.614186,1.020983 l 1.177642,-0.487796 1.169936,-0.484604 c 1.053183,-0.418167 1.567107,-1.506891 1.132952,-2.555039 z m -5.839982,-5.499664 v 0 c -3.39438,1.405999 -7.297264,-0.200824 -8.7114677,-3.61501 -1.4142028,-3.414187 0.2093613,-7.31013 3.6037367,-8.716129 v 0 0 c 3.394371,-1.4059948 7.297251,0.200819 8.711454,3.615005 1.414203,3.414188 -0.209358,7.310138 -3.603736,8.716129 z"
     id="path1"
     style="fill:#606060;fill-opacity:1;stroke:#bbbbbb;stroke-width:0.0833656;stroke-opacity:1" /></svg>
