<?xml version="1.0" encoding="UTF-8" standalone="no"?>
<svg
   viewBox="0 0 32 32"
   version="1.1"
   role="img"
   aria-label="xxlarge"
   id="svg3"
   width="32"
   height="32"
   xmlns="http://www.w3.org/2000/svg"
   xmlns:svg="http://www.w3.org/2000/svg">
  <defs
     id="defs3">
    <linearGradient
       id="swatch30">
      <stop
         style="stop-color:#4cd45c;stop-opacity:1;"
         offset="0"
         id="stop31" />
    </linearGradient>
    <linearGradient
       id="swatch17">
      <stop
         style="stop-color:#4cd45c;stop-opacity:1;"
         offset="0"
         id="stop17" />
    </linearGradient>
    <linearGradient
       id="swatch2">
      <stop
         style="stop-color:#4cd45c;stop-opacity:1;"
         offset="0"
         id="stop2" />
    </linearGradient>
  </defs>
  <path
     id="rect1"
     style="fill:#606060;fill-opacity:1;stroke:#606060;stroke-width:0"
     d="m 2,0 v 32 h 23 a 8,8 0 0 1 -8,-8 8,8 0 0 1 8,-8 8,8 0 0 1 0.527344,0.0332 A 8,8 0 0 1 26,16 V 0 Z m 23,32 h 1 A 8,8 0 0 1 25.5,31.964844 8,8 0 0 1 25,32 Z M 8.5,4.25 h 11 c 1.384996,0 2.5,1.1150056 2.5,2.5 0,1.3849944 -1.115004,2.5 -2.5,2.5 H 8.5 C 7.1150056,9.25 6,8.1349944 6,6.75 6,5.3650056 7.1150056,4.25 8.5,4.25 Z m 0,9.25 h 7 c 1.384997,0 2.5,1.115003 2.5,2.5 0,1.384997 -1.115003,2.5 -2.5,2.5 h -7 C 7.1150042,18.5 6,17.384997 6,16 6,14.615003 7.1150042,13.5 8.5,13.5 Z m 0,9.25 h 3 c 1.384998,0 2.5,1.115002 2.5,2.5 0,1.384998 -1.115002,2.5 -2.5,2.5 h -3 c -1.3849972,0 -2.5,-1.115002 -2.5,-2.5 0,-1.384998 1.1150028,-2.5 2.5,-2.5 z" />
  <path
     id="path1"
     style="fill:#606060;fill-opacity:1;stroke:#606060;stroke-width:0"
     d="m 25,18 a 6,6 0 0 0 -6,6 6,6 0 0 0 6,6 6,6 0 0 0 6,-6 6,6 0 0 0 -6,-6 z m 2.271484,2.617188 c 0.223869,0.0019 0.449096,0.07858 0.634766,0.234374 0.424387,0.356104 0.47915,0.983816 0.123047,1.408204 l -1.929688,2.298828 c -0.221659,0.264164 -0.547461,0.383709 -0.865234,0.351562 -0.0013,1.21e-4 -0.0026,-1.16e-4 -0.0039,0 -0.114418,0.01033 -0.231856,0.0023 -0.34961,-0.0293 l -2.898443,-0.77539 C 21.4473,23.962083 21.132005,23.415981 21.275391,22.880859 21.418776,22.345737 21.964878,22.030443 22.5,22.173828 l 2.443359,0.654297 1.552735,-1.853516 c 0.200308,-0.238718 0.487559,-0.359889 0.77539,-0.357421 z" />
</svg>
