<?xml version="1.0" encoding="UTF-8" standalone="no"?>
<svg
   viewBox="0 0 32 23.599609"
   version="1.1"
   role="img"
   aria-label="xxlarge"
   id="svg3"
   width="32"
   height="23.599609"
   xmlns="http://www.w3.org/2000/svg"
   xmlns:svg="http://www.w3.org/2000/svg">
  <defs
     id="defs3">
    <linearGradient
       id="swatch30">
      <stop
         style="stop-color:#4cd45c;stop-opacity:1;"
         offset="0"
         id="stop31" />
    </linearGradient>
    <linearGradient
       id="swatch17">
      <stop
         style="stop-color:#4cd45c;stop-opacity:1;"
         offset="0"
         id="stop17" />
    </linearGradient>
    <linearGradient
       id="swatch2">
      <stop
         style="stop-color:#4cd45c;stop-opacity:1;"
         offset="0"
         id="stop2" />
    </linearGradient>
  </defs>
  <path
     id="path7"
     style="fill:#606060;fill-opacity:1;stroke:#606060;stroke-width:0"
     d="M 1.2285157,2.3841858e-7 C 0.49208562,0.45960364 0,1.2714346 0,2.2070307 V 20.992187 c 0,1.444291 1.163131,2.607422 2.6074219,2.607422 H 29.392579 C 30.836869,23.599609 32,22.436478 32,20.992187 V 2.2070307 C 32,1.2719879 31.509069,0.45983714 30.773437,2.3841858e-7 h -0.04297 L 18.625001,14.517578 a 3.1202016,2.1786202 0 0 1 -5.404297,-0.01367 L 1.3281251,2.3841858e-7 Z" />
  <path
     style="fill:#606060;fill-opacity:1;stroke:#606060;stroke-width:0"
     id="path7-7"
     d="M 20.038339,12.370607 6.6733847,12.419135 12.1176,2.909906 a 1.3900451,1.3900451 179.79196 0 1 2.407613,-0.00874 z"
     transform="matrix(1.6460961,0,0,-1.1754763,-5.9850327,14.598399)" />
</svg>
