<?xml version="1.0" encoding="UTF-8" standalone="no"?>
<!-- Created with Inkscape (http://www.inkscape.org/) -->

<svg
   height="32"
   width="32"
   version="1.1"
   id="Capa_1"
   viewBox="0 0 11.18728 11.18728"
   xml:space="preserve"
   xmlns="http://www.w3.org/2000/svg"
   xmlns:svg="http://www.w3.org/2000/svg"><defs
   id="defs7" />

<path
   style="fill:#606060;fill-opacity:1;stroke-width:0.050766"
   d="M 5.5939239,-3.1099e-8 C 3.4732885,-3.1099e-8 1.7480125,1.6669018 1.7480125,3.7157866 c 0,0.8395137 0.284628,1.6322716 0.8231537,2.2923458 0.1031908,0.1265458 0.214336,0.2511455 0.3217623,0.3716536 0.3208326,0.3596775 0.6237953,0.699445 0.7316347,1.0815775 0.00233,0.00823 0.022621,0.088472 0.019626,0.3616236 l -5.165e-4,0.039471 c -0.00325,0.2217542 -0.00759,0.5253444 0.2247688,0.753037 0.1591251,0.1559369 0.3821379,0.2317846 0.6819501,0.2317846 h 2.0799375 c 0.3237249,0 0.5564473,-0.076546 0.7114923,-0.2339801 C 7.5515606,8.4003773 7.5375126,8.1253299 7.5281644,7.9432955 7.5265077,7.9111096 7.5247536,7.8786256 7.5243394,7.84629 7.5209772,7.5728392 7.5421575,7.4957441 7.5430358,7.4925007 7.6525792,7.1104186 8.0074993,6.707478 8.3206882,6.3520418 8.4251702,6.2334305 8.5238684,6.1214051 8.6158005,6.0087813 9.154536,5.3486071 9.4392672,4.5556995 9.4392672,3.7158365 9.4393189,1.6669517 7.7143012,-3.1099e-8 5.5939239,-3.1099e-8 Z M 8.0075025,5.545262 C 7.9245053,5.6468576 7.8304041,5.7537432 7.7307766,5.8668661 7.3656307,6.2813836 6.9517297,6.7511899 6.7965298,7.2926025 6.7743726,7.369747 6.7455021,7.511912 6.7497888,7.8551226 c 5.166e-4,0.041667 0.00253,0.083582 0.0047,0.1250989 0.00166,0.032783 0.00387,0.075997 0.00367,0.1102286 -0.02727,0.00429 -0.068433,0.00828 -0.1278269,0.00828 H 4.5503915 c -0.065901,0 -0.1044308,-0.00674 -0.1242115,-0.011826 C 4.41596,8.0381521 4.4174,7.9368554 4.41834,7.8729837 l 6.198e-4,-0.042116 C 4.4226679,7.4856149 4.3940038,7.3424026 4.3721053,7.2646087 4.2181965,6.7189048 3.8259358,6.279138 3.4798993,5.8911674 3.3731961,5.7715077 3.272329,5.6584347 3.179674,5.544763 2.7499689,5.017971 2.5228243,4.3854915 2.5228243,3.7157367 c 0,-1.6361637 1.3777418,-2.96729 3.0712029,-2.96729 1.6931514,0 3.0706863,1.3311263 3.0706863,2.96729 C 8.6646104,4.3858408 8.4374141,5.01852 8.0075025,5.545262 Z"
   id="path1" /><path
   style="fill:#606060;fill-opacity:1;stroke-width:0.050766"
   d="M 6.5502241,9.1854506 H 4.6371589 c -0.4129197,0 -0.7488849,0.3245981 -0.7488849,0.7235473 v 0.5547351 c 0,0.398949 0.3359652,0.723547 0.7488849,0.723547 h 1.9130652 c 0.4129197,0 0.7488849,-0.324598 0.7488849,-0.723547 V 9.9089979 c 0,-0.3989492 -0.3359652,-0.7235473 -0.7488849,-0.7235473 z M 6.5244005,10.438833 H 4.6629826 V 9.9339977 h 1.8614179 z"
   id="path2" /><ellipse
   style="fill:#606060;fill-opacity:1;stroke:#585858;stroke-width:0;stroke-dasharray:none"
   id="path7"
   cx="5.5936399"
   cy="4.0777049"
   rx="3.3593147"
   ry="3.5678339" /><path
   style="fill:#606060;fill-opacity:1;stroke:#606060;stroke-width:0.86193;stroke-dasharray:none;stroke-opacity:1"
   d="m 4.2934568,10.131929 c 2.2898348,0 2.2486507,0 2.2486507,0"
   id="path10" /><path
   style="fill:#606060;fill-opacity:1;stroke:#606060;stroke-width:0.86193;stroke-dasharray:none;stroke-opacity:1"
   d="m 4.2934567,7.7532628 c 2.2898347,0 2.2486508,0 2.2486508,0"
   id="path10-5" /></svg>
