<?xml version="1.0" encoding="UTF-8" standalone="no"?>
<svg
   viewBox="0 0 24 12.000005"
   version="1.1"
   role="img"
   aria-label="xxlarge"
   id="svg3"
   width="24"
   height="12.000005"
   xmlns="http://www.w3.org/2000/svg"
   xmlns:svg="http://www.w3.org/2000/svg">
  <defs
     id="defs3">
    <linearGradient
       id="swatch30">
      <stop
         style="stop-color:#4cd45c;stop-opacity:1;"
         offset="0"
         id="stop31" />
    </linearGradient>
    <linearGradient
       id="swatch17">
      <stop
         style="stop-color:#4cd45c;stop-opacity:1;"
         offset="0"
         id="stop17" />
    </linearGradient>
    <linearGradient
       id="swatch2">
      <stop
         style="stop-color:#4cd45c;stop-opacity:1;"
         offset="0"
         id="stop2" />
    </linearGradient>
  </defs>
  <path
     id="path1"
     style="fill:#ffb468;fill-opacity:1;stroke:#606060;stroke-width:0"
     d="M 9.457031,6.5604633e-4 A 4.875,4.5001925 0 0 0 8.780273,0.03347605 4.875,4.5001925 0 0 0 4.516113,4.866495 4.875,4.5001925 0 0 0 4.7841795,5.999747 H 4.5 A 4.5,3.0001283 0 0 0 0,8.999875 4.5,3.0001283 0 0 0 4.5,12.000004 H 18 A 6,5.400231 0 0 0 24,6.599773 6,5.400231 0 0 0 18,1.199542 6,5.400231 0 0 0 13.844238,2.723044 4.875,4.5001925 0 0 0 9.457031,6.6204633e-4 Z" />
</svg>
