<?xml version="1.0" encoding="UTF-8" standalone="no"?>
<svg
   viewBox="0 0 32 32"
   version="1.1"
   role="img"
   aria-label="xxlarge"
   id="svg3"
   width="32"
   height="32"
   xmlns="http://www.w3.org/2000/svg"
   xmlns:svg="http://www.w3.org/2000/svg">
  <path
     id="rect1"
     style="fill:#888888;fill-opacity:1;stroke:#4cd45c;stroke-width:0"
     d="M 2.5,0 C 1.1150014,0 0,1.1150014 0,2.5 v 17 C 0,20.884999 1.1150014,22 2.5,22 h 27 C 30.884999,22 32,20.884999 32,19.5 V 2.5 C 32,1.1150014 30.884999,0 29.5,0 Z m 7.421875,6 h 6.763672 c 0.0712,0 0.141689,0.026531 0.212891,0.080078 0.08307,0.040161 0.155509,0.1013196 0.214843,0.1816407 0.0712,0.066934 0.124556,0.1465265 0.160157,0.2402343 0.0356,0.080321 0.05273,0.1599134 0.05273,0.2402344 v 7.1484376 c 0,0.05355 0.0057,0.108562 0.01758,0.162109 l 0.07227,0.119141 c 0.02373,0.04016 0.04658,0.07479 0.07031,0.101563 0.0356,0.01339 0.07753,0.01953 0.125,0.01953 h 0.445313 c 0.0356,0 0.06987,0.01424 0.105468,0.04101 0.04747,0.01339 0.0894,0.03992 0.125,0.08008 0.0356,0.02677 0.06611,0.05945 0.08984,0.09961 0.02373,0.04016 0.03516,0.08093 0.03516,0.121094 v 0.96289 c 0,0.05355 -0.01713,0.108562 -0.05273,0.16211 -0.02373,0.04016 -0.05995,0.07898 -0.107422,0.11914 -0.04747,0.04016 -0.100822,0.07479 -0.160156,0.101563 C 18.044329,15.993856 17.996686,16 17.949219,16 h -7.619141 c -0.08307,0 -0.17069,-0.02039 -0.265625,-0.06055 C 9.9695182,15.885906 9.8799431,15.8267 9.796875,15.759766 9.7256738,15.679445 9.6666081,15.591755 9.6191406,15.498047 9.5716732,15.390952 9.546875,15.290973 9.546875,15.197266 v -5.181641 c 0,-0.1070947 0.024798,-0.2070734 0.072266,-0.3007812 0.047467,-0.093708 0.1065332,-0.1733002 0.1777344,-0.2402344 0.083068,-0.080321 0.1649788,-0.1414801 0.2480466,-0.1816406 0.09493,-0.040161 0.18451,-0.060547 0.267578,-0.060547 h 5.375 c 0.04747,0 0.0894,-0.020386 0.125,-0.060547 0.0356,-0.040161 0.05469,-0.087078 0.05469,-0.140625 V 7.8476562 c 0,-0.053547 -0.03051,-0.1004644 -0.08984,-0.140625 -0.05933,-0.053547 -0.112689,-0.080078 -0.160156,-0.080078 H 9.9042969 c -0.035601,0 -0.077533,-0.00614 -0.125,-0.019531 C 9.7436963,7.594035 9.7074756,7.5736487 9.671875,7.546875 L 9.5820312,7.4453125 C 9.5582975,7.405152 9.546875,7.3663324 9.546875,7.3261719 V 6.3808594 c 0,-0.040161 0.011423,-0.07898 0.035156,-0.1191406 C 9.605765,6.2081718 9.636274,6.1673988 9.671875,6.140625 9.707476,6.100465 9.749408,6.067789 9.796875,6.041016 9.8443425,6.014242 9.8862744,6 9.921875,6 Z m 9.771484,0 h 4.271485 c 0.08307,0 0.166932,0.014242 0.25,0.041016 0.09493,0.013387 0.178799,0.046062 0.25,0.099609 0.0712,0.04016 0.130267,0.107464 0.177734,0.2011719 0.05933,0.080321 0.0936,0.1802997 0.105469,0.3007812 0.01187,-0.1204815 0.04238,-0.2204602 0.08984,-0.3007812 0.05933,-0.080321 0.124111,-0.1414801 0.195312,-0.1816407 0.0712,-0.053547 0.149354,-0.092367 0.232422,-0.1191406 C 25.348693,6.014242 25.424893,6 25.496094,6 h 3.880859 c 0.0712,0 0.14169,0.020386 0.212891,0.060547 0.0712,0.04016 0.137931,0.093222 0.197265,0.1601562 0.05934,0.053547 0.105025,0.1208509 0.140625,0.2011719 C 29.975202,6.502196 30,6.5817884 30,6.6621094 v 9.0175786 c 0,0.02677 -0.01142,0.05945 -0.03516,0.09961 -0.01187,0.04016 -0.03095,0.08093 -0.05469,0.121094 -0.02373,0.02677 -0.05229,0.0533 -0.08789,0.08008 C 29.786665,15.993856 29.750444,16 29.714844,16 H 28.59375 c -0.0356,0 -0.06611,-0.0061 -0.08984,-0.01953 L 28.4336,15.90039 C 28.42173,15.87362 28.4046,15.84513 28.38087,15.81836 28.369,15.7782 28.36134,15.73938 28.36134,15.69922 V 7.8671875 c 0,-0.026774 -0.0057,-0.053305 -0.01758,-0.080078 -0.01187,-0.040161 -0.029,-0.072836 -0.05273,-0.099609 -0.02373,-0.026774 -0.04658,-0.04716 -0.07031,-0.060547 -0.02373,-0.026774 -0.05424,-0.041016 -0.08984,-0.041016 h -2.402343 c -0.0356,0 -0.07182,0.014242 -0.107422,0.041016 -0.02373,0.026774 -0.04658,0.059449 -0.07031,0.099609 -0.01187,0.026774 -0.02524,0.061402 -0.03711,0.1015625 -0.01187,0.04016 -0.01758,0.07898 -0.01758,0.1191406 v 7.7109374 c 0,0.02677 -0.0057,0.0614 -0.01758,0.101563 0,0.04016 -0.0057,0.07898 -0.01758,0.11914 -0.01187,0.04016 -0.029,0.07479 -0.05273,0.101563 C 25.396336,15.993856 25.377249,16 25.353516,16 h -1.138672 c -0.0356,0 -0.07182,-0.0061 -0.107422,-0.01953 -0.02373,-0.01339 -0.05229,-0.03377 -0.08789,-0.06055 -0.02373,-0.04016 -0.04853,-0.07479 -0.07227,-0.101563 -0.01187,-0.04016 -0.01758,-0.07898 -0.01758,-0.11914 V 7.9472656 c 0,-0.04016 -0.0057,-0.07898 -0.01758,-0.1191406 -0.01187,-0.04016 -0.029,-0.074789 -0.05273,-0.1015625 -0.01187,-0.04016 -0.03666,-0.066691 -0.07227,-0.080078 -0.02373,-0.026774 -0.05229,-0.039063 -0.08789,-0.039063 h -2.742188 c -0.02373,0 -0.05229,0.00614 -0.08789,0.019531 -0.02373,0.013387 -0.04853,0.039918 -0.07227,0.080078 -0.02373,0.026774 -0.04658,0.059449 -0.07031,0.099609 -0.01187,0.026774 -0.01758,0.053305 -0.01758,0.080078 v 2.2304695 c 0,0.08032 0.01142,0.166057 0.03516,0.259765 0.02373,0.08032 0.058,0.161867 0.105468,0.242188 l 0.142579,0.240234 c 0.05933,0.06693 0.120353,0.140382 0.179687,0.220703 0.05933,0.06693 0.112689,0.140382 0.160156,0.220703 0.05934,0.06693 0.105025,0.140382 0.140625,0.220703 0.04747,0.08032 0.08369,0.161867 0.107422,0.242188 0.0356,0.08032 0.05273,0.166058 0.05273,0.259766 v 3.675781 c 0,0.04016 -0.01142,0.07898 -0.03516,0.11914 -0.01187,0.02677 -0.03471,0.0614 -0.07031,0.101563 -0.02373,0.02677 -0.05424,0.04716 -0.08984,0.06055 C 21.413766,15.993856 21.38521,16 21.349609,16 h -2.066406 c -0.02373,0 -0.05229,-0.0061 -0.08789,-0.01953 -0.02373,-0.01339 -0.04853,-0.03377 -0.07227,-0.06055 -0.02373,-0.02677 -0.04087,-0.0533 -0.05273,-0.08008 -0.01187,-0.04016 -0.01758,-0.08093 -0.01758,-0.121094 V 6.6425781 c 0,-0.080321 0.01713,-0.1537689 0.05273,-0.2207031 0.0356,-0.080321 0.08324,-0.1476245 0.142578,-0.2011719 0.0712,-0.066934 0.143642,-0.1199957 0.214844,-0.1601562 C 19.545959,6.0203864 19.622158,6 19.693359,6 Z M 2.7128906,6.0195312 h 5.3222656 c 0.071201,0 0.1416895,0.020386 0.2128907,0.060547 0.071201,0.040161 0.1359781,0.093222 0.1953125,0.1601563 0.071201,0.053547 0.1245556,0.1208508 0.1601562,0.2011718 0.035601,0.080321 0.054687,0.1618665 0.054687,0.2421876 v 1.90625 c 0,0.053547 -0.00766,0.108562 -0.019531,0.1621093 -0.011867,0.053547 -0.029001,0.1066089 -0.052734,0.1601563 -0.023734,0.04016 -0.05229,0.072836 -0.087891,0.099609 -0.035601,0.026774 -0.077533,0.041016 -0.125,0.041016 h -1.050781 c -0.035601,0 -0.077532,-0.0081 -0.125,-0.021484 L 7.0917969,8.9511719 C 7.0561963,8.9243982 7.0256869,8.891723 7.0019531,8.8515625 6.9900863,8.811402 6.984375,8.7706293 6.984375,8.7304688 V 7.7871094 c 0,-0.053547 -0.030509,-0.1004645 -0.089844,-0.140625 C 6.8470638,7.592937 6.7937093,7.5664063 6.734375,7.5664062 H 3.8515625 c -0.035601,0 -0.06611,0.014242 -0.089844,0.041016 -0.023734,0.013387 -0.046579,0.03182 -0.070313,0.058594 -0.011867,0.026774 -0.023289,0.061402 -0.035156,0.1015625 -0.011867,0.040161 -0.019531,0.072836 -0.019531,0.099609 v 1.3867187 c 0,0.1204816 0.013376,0.2408467 0.037109,0.3613282 0.023734,0.1070947 0.058001,0.2193622 0.1054688,0.3398437 0.047467,0.1070947 0.1008219,0.2213147 0.1601562,0.3417967 0.059334,0.107095 0.1203532,0.221315 0.1796875,0.341797 l 0.1777344,0.320312 c 0.059334,0.107095 0.1069775,0.221316 0.1425781,0.341797 0.047468,0.107095 0.081735,0.221316 0.1054688,0.341797 0.035601,0.120482 0.054687,0.240847 0.054687,0.361328 v 3.494141 c 0,0.05355 -0.019087,0.114706 -0.054687,0.181641 -0.023734,0.05355 -0.058001,0.106608 -0.1054688,0.160156 -0.035601,0.04016 -0.083244,0.07898 -0.1425781,0.11914 C 4.2494075,15.985758 4.1960531,16 4.1367188,16 H 2.4453125 C 2.3859785,16 2.3269125,15.97961 2.2675781,15.93945 2.2201107,15.899293 2.1724675,15.852375 2.125,15.798828 2.0893994,15.745281 2.05889,15.686075 2.0351562,15.619141 2.0114225,15.552206 2,15.484903 2,15.417969 V 6.7832031 C 2,6.6894953 2.0171338,6.6018054 2.0527344,6.5214844 2.1002018,6.4277765 2.1592676,6.3481842 2.2304688,6.28125 2.3016699,6.200929 2.3798226,6.1397699 2.4628906,6.0996094 c 0.083068,-0.053547 0.166932,-0.080078 0.25,-0.080078 z m 9.7011714,4.8593748 c -0.0712,0 -0.137931,0.03463 -0.197265,0.101563 -0.04747,0.05355 -0.07031,0.120851 -0.07031,0.201172 v 2.75 c 0,0.08032 0.02285,0.153769 0.07031,0.220703 0.05933,0.05355 0.126064,0.08008 0.197265,0.08008 h 3.167969 c 0.0712,0 0.130267,-0.02653 0.177735,-0.08008 0.05933,-0.06693 0.08984,-0.140382 0.08984,-0.220703 v -2.75 c 0,-0.08032 -0.03051,-0.147625 -0.08984,-0.201172 -0.04747,-0.06693 -0.106534,-0.101563 -0.177735,-0.101563 z" />
  <defs
     id="defs3" />
  <rect
     style="fill:#888888;stroke:#606060;stroke-width:0"
     id="rect2-6-0"
     width="8"
     height="4"
     x="24"
     y="-7.5"
     transform="rotate(90)"
     ry="2" />
  <rect
     style="fill:#888888;stroke:#606060;stroke-width:0"
     id="rect2-6-0-7"
     width="8"
     height="4"
     x="24"
     y="-14.5"
     transform="rotate(90)"
     ry="2" />
  <rect
     style="fill:#888888;stroke:#606060;stroke-width:0"
     id="rect2-6-0-7-5"
     width="8"
     height="4"
     x="24"
     y="-21.5"
     transform="rotate(90)"
     ry="2" />
  <rect
     style="fill:#888888;stroke:#606060;stroke-width:0"
     id="rect2-6-1-8"
     width="4"
     height="8"
     x="-28.5"
     y="-32"
     transform="scale(-1)"
     ry="2" />
</svg>
