<?xml version="1.0" encoding="UTF-8" standalone="no"?>
<svg
   viewBox="0 0 32 32.068653"
   version="1.1"
   role="img"
   aria-label="xxlarge"
   id="svg3"
   width="32"
   height="32.068653"
   xmlns="http://www.w3.org/2000/svg"
   xmlns:svg="http://www.w3.org/2000/svg">
  <defs
     id="defs3" />
  <path
     id="rect3"
     style="fill:#60fc60;fill-opacity:1;stroke:#60ff60;stroke-width:0"
     d="m 8,2 v 4 h 5.933594 L 13.916016,2 24,6.1796875 V 2 A 2.3163279,2.3163279 37.628644 0 0 21.405631,0 H 10 A 2,2 135 0 0 8,2 Z M 24,17.796875 14,22 13.982422,18 H 8 v 12 a 2.5495098,2.5495098 33.690068 0 0 3,2 h 11 a 2,2 135 0 0 2,-2 z m -11.270796,7.216797 h 6.434485 A 1.8363107,1.8363107 45 0 1 21,26.849983 v 0.05883 a 2.1048544,2.1048544 135 0 1 -2.104854,2.104854 H 12.99099 A 1.9909904,1.9909904 45 0 1 11,27.022682 v -0.279806 a 1.7292039,1.7292039 135 0 1 1.729204,-1.729204 z"
     transform="translate(0,0.01914346)" />
  <path
     style="fill:#60fc60;fill-opacity:1;stroke:#60ff60;stroke-width:0"
     id="path3"
     d="m 29.608854,9.2052089 -7.2441,4.2056341 -0.02875,-11.9604474 7.264236,4.1707577 a 2.0692615,2.0692615 89.862268 0 1 0.0086,3.5840556 z"
     transform="matrix(1.9269732,0,0,1.003307,-27.140877,4.5639514)" />
  <path
     id="path1"
     style="fill:#60fc60;stroke:#60ff60;stroke-width:0"
     d="m 6,10.019143 a 6,6 0 0 0 -6,6 6,6 0 0 0 5,5.90625 v -4.1875 a 2,2 0 0 1 -1,-1.71875 2,2 0 0 1 2,-2 z" />
  <rect
     style="fill:#60fc60;stroke:#60ff60;stroke-width:0"
     id="rect2"
     width="10"
     height="4"
     x="6"
     y="10.019143" />
  <path
     id="rect2-7-9"
     style="fill:#60fc60;stroke:#60ff60;stroke-width:0"
     d="m 27,18.019143 v 4 h 1 2.03125 A 1.9688932,1.9688932 0 0 0 32,20.050393 v -0.01758 a 2.0130873,2.0130873 0 0 0 -2.013672,-2.01367 H 28 Z" />
  <rect
     style="fill:#60fc60;stroke:#60ff60;stroke-width:0"
     id="rect2-7"
     width="10"
     height="4"
     x="5"
     y="10.019143" />
</svg>
