<?xml version="1.0" encoding="UTF-8" standalone="no"?>
<!-- Created with Inkscape (http://www.inkscape.org/) -->

<svg
   width="8.4666662mm"
   height="8.4666662mm"
   viewBox="0 0 8.4666662 8.4666662"
   version="1.1"
   id="svg1"
   inkscape:version="1.3.2 (091e20e, 2023-11-25, custom)"
   sodipodi:docname="proj_state_disabled.svg"
   inkscape:export-filename="state_disabled.svg"
   inkscape:export-xdpi="96.000008"
   inkscape:export-ydpi="96.000008"
   xmlns:inkscape="http://www.inkscape.org/namespaces/inkscape"
   xmlns:sodipodi="http://sodipodi.sourceforge.net/DTD/sodipodi-0.dtd"
   xmlns="http://www.w3.org/2000/svg"
   xmlns:svg="http://www.w3.org/2000/svg">
  <sodipodi:namedview
     id="namedview1"
     pagecolor="#ffffff"
     bordercolor="#000000"
     borderopacity="0.25"
     inkscape:showpageshadow="2"
     inkscape:pageopacity="0.0"
     inkscape:pagecheckerboard="0"
     inkscape:deskcolor="#d1d1d1"
     inkscape:document-units="px"
     inkscape:export-bgcolor="#ffffff00"
     inkscape:zoom="27.997011"
     inkscape:cx="24.78836"
     inkscape:cy="23.323918"
     inkscape:window-width="3840"
     inkscape:window-height="2066"
     inkscape:window-x="-11"
     inkscape:window-y="-11"
     inkscape:window-maximized="1"
     inkscape:current-layer="svg1"
     showgrid="true"
     showguides="true">
    <inkscape:grid
       id="grid24"
       units="px"
       originx="0"
       originy="0"
       spacingx="0.26458333"
       spacingy="0.26458333"
       empcolor="#0099e5"
       empopacity="0.30196078"
       color="#0099e5"
       opacity="0.14901961"
       empspacing="5"
       dotted="false"
       gridanglex="30"
       gridanglez="30"
       visible="true" />
    <sodipodi:guide
       position="4.2333334,4.2333329"
       orientation="0,1"
       id="guide33"
       inkscape:locked="false"
       inkscape:label=""
       inkscape:color="rgb(0,134,229)" />
  </sodipodi:namedview>
  <defs
     id="defs1">
    <linearGradient
       id="swatch13"
       inkscape:swatch="solid">
      <stop
         style="stop-color:#e25a5a;stop-opacity:1;"
         offset="0"
         id="stop13" />
    </linearGradient>
  </defs>
  <path
     id="rect3"
     style="fill:#606060;fill-opacity:1;fill-rule:evenodd;stroke-width:0.472027"
     d="M 6.8791667,1.5875 V 6.8791667 H 1.5875 V 5.9464071 A 1.5875,1.984375 0 0 0 2.38125,6.2177084 1.5875,1.984375 0 0 0 3.96875,4.2333334 1.5875,1.984375 0 0 0 2.38125,2.2489583 1.5875,1.984375 0 0 0 1.5875,2.5157379 V 1.5875 Z" />
  <ellipse
     style="fill:#606060;fill-opacity:1;stroke:#4cd35b;stroke-width:0;stroke-dasharray:none;stroke-opacity:1"
     id="path3"
     cx="-6.8791666"
     cy="4.2333336"
     rx="1.5875"
     ry="2.6458333"
     transform="scale(-1,1)" />
  <path
     id="path3-0"
     style="fill:#606060;fill-opacity:1;stroke:#41ca6f;stroke-width:0;stroke-dasharray:none;stroke-opacity:1"
     d="M 1.5822464,1.5875 A 1.5822465,2.6458335 0 0 1 2.6458333,2.281902 1.5822465,1.984375 0 0 0 2.3733697,2.2489583 1.5822465,1.984375 0 0 0 0.7911232,4.2333334 1.5822465,1.984375 0 0 0 2.3733697,6.2177084 1.5822465,1.984375 0 0 0 2.6458333,6.1847647 1.5822465,2.6458335 0 0 1 1.5822464,6.8791667 1.5822465,2.6458335 0 0 1 0,4.2333334 1.5822465,2.6458335 0 0 1 1.5822464,1.5875 Z" />
</svg>
