<?xml version="1.0" encoding="UTF-8" standalone="no"?>
<!-- Created with Inkscape (http://www.inkscape.org/) -->

<svg
   width="8.4666662mm"
   height="8.4666662mm"
   viewBox="0 0 8.4666662 8.4666662"
   version="1.1"
   id="svg1"
   xmlns="http://www.w3.org/2000/svg"
   xmlns:svg="http://www.w3.org/2000/svg">
  <defs
     id="defs1">
    <linearGradient
       id="swatch13">
      <stop
         style="stop-color:#e25a5a;stop-opacity:1;"
         offset="0"
         id="stop13" />
    </linearGradient>
  </defs>
  <path
     id="rect3"
     style="fill:#4cd35b;fill-opacity:1;fill-rule:evenodd;stroke-width:0.472027"
     d="M 1.5875,1.5875 V 6.8791667 H 6.8791667 V 5.9464071 a 1.5875,1.984375 0 0 1 -0.79375,0.2713013 1.5875,1.984375 0 0 1 -1.5875,-1.984375 1.5875,1.984375 0 0 1 1.5875,-1.9843751 1.5875,1.984375 0 0 1 0.79375,0.2667796 V 1.5875 Z" />
  <ellipse
     style="fill:#4cd35b;fill-opacity:1;stroke:#4cd35b;stroke-width:0;stroke-dasharray:none;stroke-opacity:1"
     id="path3"
     cx="1.5875"
     cy="4.2333336"
     rx="1.5875"
     ry="2.6458333" />
  <path
     id="path3-0"
     style="fill:#4cd35b;fill-opacity:1;stroke:#41ca6f;stroke-width:0;stroke-dasharray:none;stroke-opacity:1"
     d="M 6.8844203,1.5875 A 1.5822465,2.6458335 0 0 0 5.8208334,2.281902 1.5822465,1.984375 0 0 1 6.093297,2.2489583 1.5822465,1.984375 0 0 1 7.6755435,4.2333334 1.5822465,1.984375 0 0 1 6.093297,6.2177084 1.5822465,1.984375 0 0 1 5.8208334,6.1847647 1.5822465,2.6458335 0 0 0 6.8844203,6.8791667 1.5822465,2.6458335 0 0 0 8.4666667,4.2333334 1.5822465,2.6458335 0 0 0 6.8844203,1.5875 Z" />
</svg>
