<?xml version="1.0" encoding="UTF-8" standalone="no"?>
<svg
   viewBox="0 0 31.824219 31.822266"
   version="1.1"
   role="img"
   aria-label="xxlarge"
   id="svg3"
   width="31.824219"
   height="31.822266"
   xmlns="http://www.w3.org/2000/svg"
   xmlns:svg="http://www.w3.org/2000/svg">
  <defs
     id="defs3">
    <linearGradient
       id="swatch30">
      <stop
         style="stop-color:#4cd45c;stop-opacity:1;"
         offset="0"
         id="stop31" />
    </linearGradient>
    <linearGradient
       id="swatch17">
      <stop
         style="stop-color:#4cd45c;stop-opacity:1;"
         offset="0"
         id="stop17" />
    </linearGradient>
    <linearGradient
       id="swatch2">
      <stop
         style="stop-color:#4cd45c;stop-opacity:1;"
         offset="0"
         id="stop2" />
    </linearGradient>
  </defs>
  <path
     id="path1"
     style="fill:#606060;stroke:#606060;stroke-width:0"
     d="m 17.410156,0 v 0.15820312 a 9,16 0 0 1 5.505859,5.77148438 h 5.480469 A 16,16 0 0 0 17.410156,0 Z m -3,0.03710938 A 16,16 0 0 0 3.5039063,5.9296875 H 8.9121094 A 9,16 0 0 1 14.410156,0.17578125 Z m 3,2.28320312 v 3.609375 h 2.972656 a 6.4285714,14 0 0 0 -2.972656,-3.609375 z m -3,0.041016 a 6.4285714,14 0 0 0 -2.953125,3.568359 h 2.953125 z M 1.5546875,8.9296875 A 16,16 0 0 0 0,14.429688 H 6.9628906 A 9,16 0 0 1 7.8398437,8.9296875 Z m 8.8222655,0 A 6.4285714,14 0 0 0 9.5332032,14.429688 H 14.410156 V 8.9296875 Z m 7.033203,0 v 5.5000005 h 4.878906 A 6.4285714,14 0 0 0 21.455078,8.9296875 Z m 6.574219,0 a 9,16 0 0 1 0.873047,5.5000005 h 6.966796 A 16,16 0 0 0 30.294922,8.9296875 Z M 0.02539063,17.429687 a 16,16 0 0 0 1.35937497,5 h 6.34375 a 9,16 0 0 1 -0.7578125,-5 z m 9.51171877,0 a 6.4285714,14 0 0 0 0.7265626,5 h 4.146484 v -5 z m 7.8730466,0 v 5 h 4.158203 a 6.4285714,14 0 0 0 0.71875,-5 z m 7.439453,0 a 9,16 0 0 1 -0.757812,5 h 6.34375 a 16,16 0 0 0 1.359375,-5 z m -21.7363277,8 A 16,16 0 0 0 14.410156,31.822265 V 31.683593 A 9,16 0 0 1 8.7167969,25.429687 Z m 8.1230467,0 a 6.4285714,14 0 0 0 3.173828,4.068359 v -4.068359 z m 6.173828,0 v 4.109375 a 6.4285714,14 0 0 0 3.193359,-4.109375 z m 5.693359,0 a 9,16 0 0 1 -5.693359,6.253906 v 0.138672 a 16,16 0 0 0 11.296875,-6.392578 z" />
</svg>
